<svg width="21" height="21" viewBox="0 0 21 21" fill="none" xmlns="http://www.w3.org/2000/svg">
<path d="M14.4375 3.9375C16.3678 3.9375 17.9375 5.50725 17.9375 7.4375C17.9375 11.5237 13.0874 15.26 10.5 17.0826C7.91262 15.26 3.0625 11.5237 3.0625 7.4375C3.0625 5.50725 4.63225 3.9375 6.5625 3.9375C7.12452 3.93877 7.67801 4.07502 8.17639 4.33479C8.67477 4.59457 9.10346 4.97026 9.42637 5.43025L10.5 6.95887L11.5736 5.43112C11.8961 4.97066 12.3247 4.59456 12.8232 4.33459C13.3216 4.07463 13.8753 3.93843 14.4375 3.9375ZM14.4375 2.625C13.6646 2.62489 12.9031 2.81127 12.2176 3.16833C11.5321 3.52539 10.9429 4.04259 10.5 4.676C10.0571 4.04259 9.46789 3.52539 8.78241 3.16833C8.09692 2.81127 7.3354 2.62489 6.5625 2.625C5.28615 2.625 4.06207 3.13203 3.15955 4.03455C2.25703 4.93707 1.75 6.16115 1.75 7.4375C1.75 12.4425 7.4375 16.5707 10.5 18.6812C13.5625 16.5707 19.25 12.4425 19.25 7.4375C19.25 6.80551 19.1255 6.17972 18.8837 5.59584C18.6418 5.01196 18.2873 4.48143 17.8405 4.03455C17.3936 3.58767 16.863 3.23318 16.2792 2.99133C15.6953 2.74948 15.0695 2.625 14.4375 2.625V2.625Z" fill="#F6F5F3"/>
</svg>
