<svg width="33" height="12" viewBox="0 0 33 12" fill="none" xmlns="http://www.w3.org/2000/svg">
<path d="M15 6C15 6.55228 15.4477 7 16 7H26C26.5523 7 27 6.55228 27 6V6C27 5.44772 26.5523 5 26 5H16C15.4477 5 15 5.44772 15 6V6ZM16 0C15.4477 0 15 0.447715 15 1V1C15 1.55228 15.4477 2 16 2H32C32.5523 2 33 1.55228 33 1V1C33 0.447715 32.5523 0 32 0H16ZM15 11C15 11.5523 15.4477 12 16 12H20C20.5523 12 21 11.5523 21 11V11C21 10.4477 20.5523 10 20 10H16C15.4477 10 15 10.4477 15 11V11Z" fill="#495974"/>
<path d="M1 5L5 1L9 5" stroke="#495974" stroke-width="2" stroke-linecap="round" stroke-linejoin="round"/>
<path d="M5 1L5 11" stroke="#495974" stroke-width="2" stroke-linecap="round" stroke-linejoin="round"/>
</svg>
