<svg width="21" height="21" viewBox="0 0 21 21" fill="none" xmlns="http://www.w3.org/2000/svg">
<path d="M17.138 18.375C17.0515 18.3752 16.9658 18.3581 16.8859 18.3249C16.806 18.2917 16.7334 18.2429 16.6725 18.1814L1.66736 3.08683C1.54466 2.96337 1.47603 2.79622 1.47657 2.62215C1.4771 2.44808 1.54677 2.28135 1.67023 2.15865C1.7937 2.03595 1.96085 1.96731 2.13492 1.96785C2.30899 1.96839 2.47571 2.03806 2.59842 2.16152L17.6032 17.2553C17.6948 17.3471 17.7572 17.4641 17.7823 17.5914C17.8075 17.7187 17.7944 17.8507 17.7446 17.9705C17.6948 18.0903 17.6106 18.1927 17.5027 18.2647C17.3947 18.3367 17.2678 18.3751 17.138 18.375V18.375Z" fill="#F6F5F3"/>
<path d="M14.9671 3.28125C12.9946 3.28125 11.6858 4.49327 10.9918 5.37305C10.2995 4.49204 8.98904 3.28125 7.0166 3.28125C6.58593 3.28095 6.15754 3.34383 5.74512 3.46788L6.89027 4.59375C7.80328 4.59375 8.7692 4.9629 9.51281 5.68764C9.86557 6.03125 10.1661 6.42466 10.4049 6.85536C10.4595 6.96413 10.5433 7.05558 10.6468 7.11949C10.7504 7.18339 10.8697 7.21724 10.9914 7.21724C11.1131 7.21724 11.2324 7.18339 11.336 7.11949C11.4396 7.05558 11.5234 6.96413 11.5779 6.85536C11.8168 6.42403 12.1177 6.03006 12.4709 5.686C13.2145 4.9629 14.0541 4.59375 14.9671 4.59375C16.7369 4.59375 18.1917 6.08385 18.2102 7.91602C18.2323 10.1181 17.2771 11.9991 15.8567 13.6385L16.7849 14.5724C16.9079 14.4314 17.0187 14.3001 17.1187 14.1787C18.7594 12.1792 19.5448 10.1264 19.5227 7.90331C19.4972 5.35336 17.4534 3.28125 14.9671 3.28125Z" fill="#F6F5F3"/>
<path d="M10.9917 17.7187C7.39788 15.2787 3.7319 12.2062 3.77292 7.91602C3.77553 7.66197 3.80635 7.40899 3.86479 7.16174L2.82956 6.11707C2.59188 6.68206 2.4665 7.28793 2.46042 7.90084C2.43827 10.1247 3.22454 12.1775 4.86434 14.1762C5.63421 15.1143 7.02997 16.6146 10.2534 18.8028C10.4708 18.9518 10.7281 19.0315 10.9917 19.0315C11.2552 19.0315 11.5126 18.9518 11.7299 18.8028C12.5646 18.2364 13.2762 17.7159 13.8865 17.2397L12.9571 16.3041C12.3144 16.8 11.6516 17.2696 10.9917 17.7187Z" fill="#F6F5F3"/>
</svg>
