<svg width="21" height="21" viewBox="0 0 21 21" fill="none" xmlns="http://www.w3.org/2000/svg">
<path d="M15.4217 14.4375H15.0936V13.125H15.4217C16.2049 13.1563 16.9685 12.8753 17.5445 12.3436C18.1205 11.8119 18.4616 11.0732 18.493 10.29C18.5243 9.50679 18.2432 8.74321 17.7115 8.16724C17.1799 7.59127 16.4412 7.25009 15.658 7.21876H15.0936L15.028 6.68063C14.8824 5.5758 14.3401 4.56156 13.5023 3.82685C12.6644 3.09214 11.588 2.68706 10.4736 2.68706C9.35921 2.68706 8.28283 3.09214 7.44494 3.82685C6.60706 4.56156 6.06482 5.5758 5.91922 6.68063L5.9061 7.21876H5.34172C4.5585 7.25009 3.81981 7.59127 3.28814 8.16724C2.75648 8.74321 2.47539 9.50679 2.50672 10.29C2.53805 11.0732 2.87923 11.8119 3.4552 12.3436C4.03117 12.8753 4.79475 13.1563 5.57797 13.125H5.9061V14.4375H5.57797C4.52561 14.4308 3.51286 14.0354 2.73443 13.3272C1.956 12.619 1.46684 11.648 1.36099 10.601C1.25515 9.55395 1.54009 8.50473 2.16104 7.65507C2.78199 6.80541 3.69511 6.21528 4.72485 5.99813C5.00815 4.67679 5.73602 3.49255 6.78699 2.64303C7.83796 1.79352 9.14847 1.33009 10.4998 1.33009C11.8512 1.33009 13.1617 1.79352 14.2127 2.64303C15.2637 3.49255 15.9915 4.67679 16.2748 5.99813C17.3046 6.21528 18.2177 6.80541 18.8387 7.65507C19.4596 8.50473 19.7445 9.55395 19.6387 10.601C19.5329 11.648 19.0437 12.619 18.2653 13.3272C17.4868 14.0354 16.4741 14.4308 15.4217 14.4375V14.4375Z" fill="#F6F5F3"/>
<path d="M11.1562 17.1741V9.1875H9.84375V17.1741L8.14406 15.4809L7.21875 16.4062L10.5 19.6875L13.7812 16.4062L12.8559 15.4809L11.1562 17.1741Z" fill="#F6F5F3"/>
</svg>
