<svg width="21" height="21" viewBox="0 0 21 21" fill="none" xmlns="http://www.w3.org/2000/svg">
<path fill-rule="evenodd" clip-rule="evenodd" d="M15.3878 5.18044L6.2003 9.77419L5.6123 8.60081L14.7998 4.00706L15.3878 5.18044ZM14.7998 16.9929L5.6123 12.3992L6.2003 11.2258L15.3878 15.8196L14.7998 16.9929Z" fill="#F6F5F3"/>
<path fill-rule="evenodd" clip-rule="evenodd" d="M17.7188 5.25C18.2409 5.25 18.7417 5.04258 19.1109 4.67337C19.4801 4.30415 19.6875 3.80339 19.6875 3.28125C19.6875 2.75911 19.4801 2.25835 19.1109 1.88913C18.7417 1.51992 18.2409 1.3125 17.7188 1.3125C17.1966 1.3125 16.6958 1.51992 16.3266 1.88913C15.9574 2.25835 15.75 2.75911 15.75 3.28125C15.75 3.80339 15.9574 4.30415 16.3266 4.67337C16.6958 5.04258 17.1966 5.25 17.7188 5.25ZM17.7188 6.5625C18.589 6.5625 19.4236 6.2168 20.0389 5.60144C20.6543 4.98609 21 4.15149 21 3.28125C21 2.41101 20.6543 1.57641 20.0389 0.961056C19.4236 0.345702 18.589 0 17.7188 0C16.8485 0 16.0139 0.345702 15.3986 0.961056C14.7832 1.57641 14.4375 2.41101 14.4375 3.28125C14.4375 4.15149 14.7832 4.98609 15.3986 5.60144C16.0139 6.2168 16.8485 6.5625 17.7188 6.5625V6.5625ZM17.7188 19.6875C18.2409 19.6875 18.7417 19.4801 19.1109 19.1109C19.4801 18.7417 19.6875 18.2409 19.6875 17.7188C19.6875 17.1966 19.4801 16.6958 19.1109 16.3266C18.7417 15.9574 18.2409 15.75 17.7188 15.75C17.1966 15.75 16.6958 15.9574 16.3266 16.3266C15.9574 16.6958 15.75 17.1966 15.75 17.7188C15.75 18.2409 15.9574 18.7417 16.3266 19.1109C16.6958 19.4801 17.1966 19.6875 17.7188 19.6875ZM17.7188 21C18.589 21 19.4236 20.6543 20.0389 20.0389C20.6543 19.4236 21 18.589 21 17.7188C21 16.8485 20.6543 16.0139 20.0389 15.3986C19.4236 14.7832 18.589 14.4375 17.7188 14.4375C16.8485 14.4375 16.0139 14.7832 15.3986 15.3986C14.7832 16.0139 14.4375 16.8485 14.4375 17.7188C14.4375 18.589 14.7832 19.4236 15.3986 20.0389C16.0139 20.6543 16.8485 21 17.7188 21V21ZM3.28125 12.4688C3.80339 12.4687 4.30415 12.2613 4.67337 11.8921C5.04258 11.5229 5.25 11.0221 5.25 10.5C5.25 9.97786 5.04258 9.4771 4.67337 9.10788C4.30415 8.73867 3.80339 8.53125 3.28125 8.53125C2.75911 8.53125 2.25835 8.73867 1.88913 9.10788C1.51992 9.4771 1.3125 9.97786 1.3125 10.5C1.3125 11.0221 1.51992 11.5229 1.88913 11.8921C2.25835 12.2613 2.75911 12.4688 3.28125 12.4688V12.4688ZM3.28125 13.7812C4.15149 13.7812 4.98609 13.4355 5.60144 12.8202C6.2168 12.2048 6.5625 11.3702 6.5625 10.5C6.5625 9.62976 6.2168 8.79516 5.60144 8.17981C4.98609 7.56445 4.15149 7.21875 3.28125 7.21875C2.41101 7.21875 1.57641 7.56445 0.961056 8.17981C0.345702 8.79516 0 9.62976 0 10.5C0 11.3702 0.345702 12.2048 0.961056 12.8202C1.57641 13.4355 2.41101 13.7812 3.28125 13.7812V13.7812Z" fill="#F6F5F3"/>
</svg>
