<svg width="100" height="100" viewBox="0 0 100 100" fill="none" xmlns="http://www.w3.org/2000/svg">
<path d="M62.2139 7.88946L59.7316 13.2998C59.3612 14.1071 58.7669 14.7912 58.0192 15.2708C57.2715 15.7503 56.4019 16.0053 55.5137 16.0053H12.9961C10.4332 16.0053 8.35547 18.083 8.35547 20.6459V69.3172C8.35547 71.8801 10.4332 73.9578 12.9961 73.9578H91.0428C93.6057 73.9578 95.6834 71.8801 95.6834 69.3172V9.82462C95.6834 7.26172 93.6057 5.18399 91.0428 5.18399H66.4318C65.5436 5.184 64.674 5.43892 63.9263 5.91849C63.1786 6.39806 62.5843 7.08213 62.2139 7.88946V7.88946Z" fill="#F6F5F3"/>
<path d="M91.4646 77.0817V39.2918C91.4646 36.7289 89.3869 34.6512 86.824 34.6512H44.3062C43.418 34.6512 42.5484 34.3962 41.8007 33.9167C41.053 33.4371 40.4587 32.753 40.0883 31.9457L37.6061 26.5353C37.2356 25.728 36.6413 25.0439 35.8936 24.5644C35.1459 24.0848 34.2763 23.8299 33.3881 23.8299H8.77734C6.21445 23.8299 4.13672 25.9076 4.13672 28.4705V86.0086C4.13672 88.5715 6.21445 90.6492 8.77734 90.6492H86.824C87.0945 90.6492 87.3594 90.6248 87.6172 90.5803C87.9373 90.6246 88.2637 90.6492 88.5961 90.6492C92.5101 90.6492 95.683 87.4764 95.683 83.5623C95.683 80.6694 93.949 78.183 91.4646 77.0817V77.0817Z" fill="#566885"/>
<path d="M91.4648 61.9805V82.7557H91.4732C91.4732 83.9182 92.4156 84.8605 93.5781 84.8605C94.7406 84.8605 95.683 83.9182 95.683 82.7557V61.9805H91.4648Z" fill="#F6F5F3"/>
</svg>
