<svg width="100" height="100" viewBox="0 0 100 100" fill="none" xmlns="http://www.w3.org/2000/svg">
<path d="M83.3336 90.75C83.3336 92.4069 81.9905 93.75 80.3336 93.75H19.667C18.0101 93.75 16.667 92.4069 16.667 90.75V9.25C16.667 7.59315 18.0101 6.25 19.667 6.25H61.2577C62.0533 6.25 62.8164 6.56607 63.379 7.12868L82.455 26.2047C83.0176 26.7673 83.3336 27.5303 83.3336 28.326V90.75Z" fill="#566885"/>
<path d="M78.5015 27.4596C79.1315 28.0895 78.6853 29.1667 77.7944 29.1667H61.417C60.8647 29.1667 60.417 28.719 60.417 28.1667V11.7892C60.417 10.8983 61.4941 10.4521 62.1241 11.0821L78.5015 27.4596Z" fill="#F6F5F3"/>
</svg>
